<?xml version="1.0" standalone="no"?>
<!DOCTYPE svg PUBLIC "-//W3C//DTD SVG 20010904//EN"
 "http://www.w3.org/TR/2001/REC-SVG-20010904/DTD/svg10.dtd">
<svg version="1.0" xmlns="http://www.w3.org/2000/svg"
 width="970.000000pt" height="970.000000pt" viewBox="0 0 970.000000 970.000000"
 preserveAspectRatio="xMidYMid meet">
<metadata>
Created by potrace 1.16, written by Peter Selinger 2001-2019
</metadata>
<g transform="translate(0.000000,970.000000) scale(0.100000,-0.100000)"
fill="#000000" stroke="none">
<path d="M4545 9573 c-412 -32 -769 -103 -1130 -222 -386 -127 -717 -283
-1084 -509 -473 -292 -939 -731 -1282 -1207 -99 -137 -299 -452 -299 -470 0
-3 -25 -51 -57 -107 -165 -299 -322 -722 -407 -1098 -143 -636 -167 -1163 -81
-1827 52 -398 196 -881 380 -1274 95 -201 133 -273 248 -464 221 -369 428
-634 724 -927 396 -394 796 -676 1297 -918 222 -107 336 -152 606 -243 241
-81 584 -156 875 -192 303 -37 767 -43 1050 -14 244 25 601 95 840 165 191 56
498 172 640 242 33 16 98 48 145 71 47 22 114 57 150 77 36 20 90 50 120 66
30 17 64 36 75 42 139 76 544 378 720 535 103 92 347 345 444 460 266 315 454
603 643 983 111 223 149 311 217 506 188 533 265 1003 264 1622 -1 645 -92
1151 -309 1707 -106 272 -319 675 -491 928 -259 381 -609 757 -963 1036 -151
119 -168 132 -300 220 -201 135 -323 206 -545 313 -356 174 -623 272 -991 364
-418 106 -733 143 -1189 140 -148 -1 -288 -3 -310 -5z m840 -198 c466 -56
1002 -199 1345 -358 430 -199 674 -345 1003 -599 127 -99 246 -206 418 -377
231 -231 325 -342 473 -560 42 -61 91 -132 109 -158 96 -139 234 -389 322
-583 36 -80 75 -165 87 -190 100 -217 222 -647 272 -960 37 -232 56 -774 37
-1050 -29 -429 -91 -749 -217 -1128 -254 -766 -702 -1444 -1316 -1994 -97 -87
-179 -152 -388 -309 -87 -65 -308 -205 -460 -292 -282 -160 -713 -334 -1020
-412 -389 -99 -649 -134 -1035 -142 -300 -6 -515 8 -790 53 -382 62 -652 136
-1009 276 -275 108 -502 226 -846 439 -67 42 -306 221 -381 286 -30 26 -73 63
-95 81 -176 149 -472 471 -636 692 -203 274 -307 446 -457 749 -270 549 -418
1115 -461 1759 -23 355 3 742 75 1100 123 609 274 1000 600 1557 196 333 586
789 911 1065 93 79 133 110 142 110 5 0 15 7 22 15 15 19 228 171 305 219 33
20 89 55 125 77 126 79 345 191 535 274 72 31 150 66 175 77 72 33 362 125
530 169 252 65 552 116 760 129 192 13 714 3 865 -15z"/>
<path d="M4720 9244 c-19 -2 -109 -8 -200 -15 -149 -9 -297 -28 -480 -59 -71
-12 -335 -78 -440 -109 -453 -136 -915 -363 -1338 -658 -240 -168 -611 -516
-798 -748 -174 -216 -411 -604 -573 -940 -199 -412 -352 -984 -401 -1500 -13
-140 -13 -531 0 -701 19 -251 105 -677 199 -991 147 -488 341 -878 632 -1268
322 -432 545 -661 929 -954 55 -43 318 -221 325 -221 2 0 39 -21 82 -47 43
-25 103 -61 135 -80 83 -49 303 -161 373 -189 33 -14 71 -31 85 -39 34 -18
310 -110 386 -129 32 -7 93 -23 135 -35 96 -26 419 -97 479 -105 137 -19 456
-36 670 -36 340 0 564 22 915 91 383 75 977 297 1325 497 270 155 671 486 985
814 96 99 121 128 203 233 34 44 75 96 91 115 45 56 231 336 293 440 260 439
474 1104 564 1750 21 155 30 631 15 815 -25 302 -81 616 -156 870 -53 180
-172 500 -243 650 -220 467 -534 900 -943 1300 -193 189 -217 210 -329 295
-47 36 -87 68 -90 71 -3 4 -59 44 -125 90 -162 114 -373 240 -492 295 -54 25
-147 70 -208 99 -152 74 -198 92 -455 178 -307 104 -553 163 -770 187 -52 5
-132 14 -177 20 -88 10 -544 21 -603 14z m394 -388 c36 -85 187 -557 184 -573
-2 -13 -14 -19 -38 -21 -59 -5 -82 9 -100 64 -20 58 -28 62 -161 63 -108 1
-107 2 -137 -74 -17 -44 -23 -50 -52 -53 -53 -6 -80 5 -80 32 0 13 39 109 86
212 47 104 99 223 116 264 46 116 49 120 113 120 53 0 55 -1 69 -34z m-552
-12 c48 -33 58 -62 34 -100 -21 -30 -41 -30 -108 1 -31 14 -71 25 -97 25 -37
0 -49 -6 -81 -38 -46 -45 -64 -105 -57 -183 6 -70 27 -110 74 -146 51 -39 122
-39 181 0 23 15 49 27 58 27 22 0 72 -31 79 -48 11 -29 -29 -76 -90 -107 -50
-25 -71 -30 -135 -30 -98 0 -156 22 -210 81 -84 92 -116 214 -86 331 8 34 25
77 37 96 52 78 167 129 286 124 61 -2 78 -7 115 -33z m1433 -84 c135 -35 166
-49 198 -92 87 -117 53 -244 -82 -305 -62 -27 -61 -20 -16 -169 36 -118 33
-127 -36 -109 -29 8 -55 18 -60 22 -4 4 -19 60 -34 123 -15 63 -32 121 -37
128 -6 6 -23 12 -39 12 -25 0 -29 -5 -43 -52 -8 -29 -18 -66 -22 -83 -13 -59
-30 -74 -71 -68 -52 8 -73 20 -73 43 0 11 31 120 69 244 38 123 72 243 76 267
8 49 20 69 42 69 8 0 66 -13 128 -30z m-2074 -155 c27 -93 65 -226 85 -294 19
-68 32 -127 27 -132 -15 -15 -103 -34 -112 -24 -4 6 -41 118 -80 250 -40 132
-78 259 -86 281 -7 23 -10 46 -6 53 8 12 88 40 110 38 9 -1 31 -62 62 -172z
m2731 81 c39 -16 63 -40 54 -54 -7 -12 -128 -24 -150 -16 -22 9 -20 33 6 61
25 27 43 28 90 9z m-3038 -35 c12 -41 0 -53 -74 -76 -30 -9 -65 -24 -78 -31
l-22 -14 30 -60 c17 -33 39 -82 50 -110 11 -27 42 -99 70 -159 27 -61 50 -120
50 -131 0 -22 -29 -37 -86 -47 -31 -5 -31 -5 -74 98 -71 174 -168 359 -187
359 -9 0 -47 -14 -84 -31 -38 -17 -75 -29 -84 -26 -19 8 -21 80 -2 94 29 23
451 174 472 169 5 -1 14 -17 19 -35z m2949 -93 c44 -22 45 -19 -13 -148 -64
-143 -168 -383 -179 -412 -7 -20 -17 -28 -33 -28 -35 1 -92 33 -96 53 -2 10
10 43 26 75 33 63 162 374 182 437 20 61 32 64 113 23z m315 -164 c59 -31 130
-71 157 -89 28 -18 74 -45 103 -60 30 -17 52 -35 52 -45 0 -27 -24 -70 -40
-70 -8 0 -45 21 -82 46 -55 38 -70 45 -82 35 -13 -11 -62 -84 -229 -343 -55
-86 -67 -92 -123 -57 -39 24 -42 45 -13 91 169 266 236 384 226 397 -7 7 -40
27 -75 44 -35 17 -66 36 -69 44 -8 20 25 63 48 63 12 0 69 -25 127 -56z
m-3850 7 c9 -5 12 -25 10 -57 l-3 -49 -87 -5 c-100 -6 -128 -23 -128 -75 0
-53 26 -62 169 -64 130 -2 168 -11 209 -51 30 -28 42 -61 42 -111 0 -125 -109
-219 -256 -219 -89 0 -103 12 -85 70 14 47 23 54 70 52 78 -3 131 33 131 89 0
36 -14 40 -155 46 -153 5 -158 6 -205 49 -75 68 -78 159 -8 238 45 52 80 74
141 86 56 11 139 12 155 1z m-790 -290 c5 -48 -24 -103 -51 -99 -19 3 -22 9
-21 45 1 80 65 129 72 54z m5166 -44 c30 -29 46 -52 46 -68 0 -13 -17 -93 -38
-177 -22 -84 -36 -155 -32 -157 4 -3 70 22 146 54 77 33 153 62 169 65 58 12
125 -52 112 -106 -5 -20 -123 -167 -325 -405 -24 -29 -51 -54 -60 -58 -15 -5
-92 58 -92 76 0 7 38 59 165 222 67 87 60 97 -33 45 -106 -60 -187 -98 -206
-98 -63 0 -72 75 -26 230 17 56 30 109 28 118 -2 9 -48 -38 -113 -114 -60 -70
-115 -129 -121 -131 -6 -2 -29 10 -52 27 -41 30 -42 31 -28 58 8 15 40 59 73
97 32 39 76 93 98 120 92 117 210 245 226 245 9 0 37 -19 63 -43z m-4943 -175
c85 -43 172 -90 194 -103 22 -14 80 -45 128 -69 49 -23 91 -49 94 -56 6 -17
-57 -73 -83 -74 -12 0 -41 9 -65 20 -24 11 -53 20 -64 20 -21 0 -162 -112
-172 -136 -3 -8 4 -39 15 -69 12 -30 19 -61 16 -68 -6 -14 -55 -54 -77 -63
-19 -7 -61 72 -112 206 -18 47 -58 152 -89 233 -31 81 -56 159 -56 173 0 28
50 64 91 64 14 0 95 -35 180 -78z m2393 -188 c19 -47 35 -59 98 -69 l37 -6
-40 -37 -40 -37 11 -53 c7 -29 10 -55 7 -58 -2 -2 -24 7 -50 21 l-45 26 -46
-23 c-25 -12 -48 -19 -52 -16 -3 4 -1 28 5 55 l11 48 -40 36 c-45 39 -43 49 6
49 51 0 63 9 85 61 12 27 24 49 28 49 3 0 14 -21 25 -46z m-2810 -239 c97 -85
196 -170 219 -189 24 -20 50 -47 57 -61 12 -23 12 -30 -4 -59 -9 -18 -30 -40
-46 -49 -26 -16 -37 -16 -137 -2 -59 8 -146 22 -192 31 -49 9 -88 11 -93 6 -5
-5 11 -26 39 -52 122 -109 193 -184 193 -204 0 -20 -46 -76 -63 -76 -5 0 -62
48 -126 108 -64 59 -139 125 -166 147 -66 54 -169 147 -173 157 -2 4 11 26 28
48 l32 40 72 0 c76 0 256 -29 341 -55 60 -18 55 -18 55 -2 0 7 -24 33 -53 57
-29 25 -82 71 -118 102 -35 31 -80 70 -99 86 l-34 30 29 38 c29 39 44 54 56
54 4 0 86 -70 183 -155z m6009 -20 c16 -24 27 -51 25 -59 -2 -7 -31 -33 -65
-57 -103 -73 -293 -221 -349 -271 -28 -27 -56 -48 -62 -48 -14 0 -69 64 -77
91 -6 18 -2 27 16 39 13 8 80 61 150 117 211 168 299 233 317 233 9 0 30 -20
45 -45z m-1706 -160 c29 -19 59 -35 68 -35 8 0 42 11 75 24 32 13 61 22 63 20
3 -3 -6 -36 -20 -75 l-24 -70 29 -37 c17 -20 39 -46 51 -56 12 -11 21 -23 21
-27 0 -5 -35 -9 -77 -11 l-77 -3 -33 -55 c-18 -30 -37 -56 -42 -58 -5 -2 -19
27 -31 63 -24 73 -40 85 -127 100 -24 4 -43 11 -43 16 0 5 25 25 55 44 30 20
55 41 56 48 2 30 -3 114 -7 130 -8 25 5 21 63 -18z m1907 -180 c53 -25 142
-111 166 -159 26 -55 39 -178 20 -201 -14 -17 -72 -20 -101 -5 -16 9 -19 22
-19 77 0 84 -25 127 -88 155 -159 71 -369 -136 -283 -278 14 -23 36 -38 76
-53 30 -12 60 -21 64 -21 18 0 29 -55 17 -90 -17 -53 -49 -59 -120 -24 -160
78 -231 231 -175 379 29 77 141 194 209 218 60 21 192 22 234 2z m-4870 -11
c12 -5 16 -21 16 -69 0 -59 -2 -63 -25 -69 -36 -9 -42 -3 -50 53 -10 73 11
103 59 85z m-1781 -173 c89 -54 199 -120 244 -146 46 -26 87 -53 93 -60 13
-16 -55 -105 -81 -105 -10 0 -65 31 -121 68 -113 75 -250 158 -328 197 -28 14
-50 32 -50 40 0 22 53 105 68 105 7 0 86 -44 175 -99z m2039 72 c26 -23 23
-32 -24 -80 -48 -49 -57 -51 -83 -23 -18 20 -18 22 30 70 27 28 51 50 54 50 2
0 13 -7 23 -17z m-482 -38 c43 -44 43 -45 25 -65 -26 -29 -39 -25 -85 22 -43
45 -47 57 -28 76 21 21 43 13 88 -33z m2448 -74 c247 -53 453 -149 631 -295
61 -49 80 -60 106 -57 44 3 85 -44 85 -98 0 -32 6 -41 48 -73 72 -56 283 -272
365 -375 289 -363 441 -879 407 -1383 -20 -286 -78 -505 -199 -750 -226 -456
-608 -809 -1057 -979 l-96 -36 -79 -165 c-88 -184 -96 -226 -59 -309 37 -80
23 -111 -66 -151 -61 -26 -79 -43 -112 -102 -23 -42 -34 -51 -76 -63 -64 -19
-121 -19 -140 0 -21 22 -11 40 35 61 50 22 75 57 99 136 10 35 37 115 58 178
33 94 86 336 77 348 -2 2 -43 -2 -91 -9 -140 -18 -387 -7 -505 24 -248 65
-389 154 -489 309 -155 239 -75 556 170 671 52 25 77 31 135 31 40 0 83 -6
100 -14 29 -13 28 -14 -57 -21 -110 -11 -182 -42 -248 -109 -194 -193 -136
-520 121 -682 175 -111 446 -164 705 -139 179 17 171 12 180 118 4 58 3 111
-6 158 -6 39 -16 111 -20 160 -5 50 -18 128 -29 175 -38 162 -54 266 -60 389
l-6 125 -77 59 c-43 33 -116 100 -163 149 -68 71 -94 108 -130 181 -59 123
-89 240 -90 347 0 74 4 92 28 138 31 59 29 68 -25 118 -30 28 -191 151 -389
296 -79 58 -137 133 -274 358 -32 52 -85 129 -117 171 -89 116 -109 194 -64
259 13 19 28 65 35 101 32 188 120 349 266 487 148 142 370 245 601 282 96 15
365 4 472 -19z m-2185 8 c49 -13 105 -63 128 -114 51 -111 -10 -246 -125 -280
-139 -42 -269 52 -269 196 0 93 49 162 139 194 47 17 77 18 127 4z m-323 -194
l0 -35 -54 0 c-69 0 -86 7 -86 34 0 33 7 36 77 36 l63 0 0 -35z m659 21 c12
-14 5 -46 -13 -58 -18 -12 -101 -9 -114 4 -16 16 -15 55 1 61 27 12 115 7 126
-7z m-2391 -69 c6 -5 12 -28 12 -51 0 -39 -3 -42 -46 -65 -88 -47 -120 -143
-74 -219 26 -43 127 -92 189 -92 95 0 178 72 188 163 4 36 1 48 -20 73 -32 36
-50 28 -88 -37 -21 -36 -31 -44 -54 -44 -21 0 -33 7 -45 28 -14 26 -13 30 15
85 33 63 90 132 110 132 20 0 117 -42 157 -68 65 -42 82 -112 54 -220 -20 -74
-57 -133 -118 -186 -67 -58 -131 -81 -208 -73 -128 14 -235 81 -288 181 -23
44 -27 63 -27 136 0 75 4 91 29 135 32 58 82 102 132 120 43 14 65 15 82 2z
m1816 -146 c22 -24 12 -44 -40 -90 -33 -29 -38 -31 -57 -18 -33 22 -31 32 16
81 49 52 57 54 81 27z m436 -36 c37 -37 43 -49 34 -63 -21 -32 -48 -25 -93 23
-41 45 -42 47 -25 66 25 27 35 24 84 -26z m5081 -65 c44 -73 45 -86 9 -120
-53 -50 -476 -350 -492 -350 -4 0 -18 21 -30 48 -12 26 -23 50 -25 54 -2 4 17
21 42 38 25 17 45 39 45 48 0 9 -17 49 -38 87 l-37 70 -61 -3 -61 -3 -22 51
c-34 78 -31 82 79 97 119 15 368 30 480 29 l84 -1 27 -45z m-5301 -32 c0 -59
-13 -88 -41 -88 -24 0 -28 10 -33 78 -3 47 -1 54 17 61 42 16 57 3 57 -51z
m3824 -25 l39 -6 -28 -23 c-24 -19 -27 -27 -22 -58 7 -41 6 -41 -34 -21 -28
15 -32 14 -60 -6 l-31 -22 7 43 c7 39 5 45 -21 66 -27 22 -28 23 -7 24 36 0
53 11 70 44 l16 31 15 -33 c13 -26 23 -34 56 -39z m-3878 -247 c39 -22 41 -22
63 -5 27 22 81 34 115 25 40 -10 85 -54 92 -90 7 -41 -6 -69 -80 -161 l-56
-70 0 -112 0 -113 133 0 134 0 81 60 c99 74 135 79 188 26 28 -28 34 -42 34
-76 0 -23 -7 -58 -17 -77 -15 -33 -15 -37 0 -63 10 -15 17 -49 17 -74 0 -61
-37 -105 -95 -113 -37 -5 -47 0 -130 61 l-89 66 -128 0 -128 0 0 -170 0 -170
173 0 173 0 65 54 c81 66 99 76 141 76 40 0 73 -21 93 -60 21 -40 19 -69 -8
-122 -23 -45 -23 -46 -5 -79 40 -76 13 -158 -60 -180 -48 -14 -71 -5 -155 65
l-69 56 -174 0 -174 0 0 -290 0 -290 71 -87 c67 -81 71 -89 66 -126 -13 -95
-120 -132 -211 -72 -25 17 -28 17 -45 1 -52 -47 -139 -40 -186 15 -43 52 -35
84 45 182 l70 85 0 291 0 291 -166 0 -165 0 -78 -60 c-91 -71 -129 -81 -179
-50 -55 34 -69 108 -31 169 19 31 19 34 3 58 -60 92 -19 203 75 203 39 0 59
-11 147 -82 l59 -48 168 0 167 0 -2 168 -3 167 -128 3 -127 3 -86 -66 c-49
-38 -95 -65 -109 -65 -92 0 -145 105 -95 188 18 29 18 35 6 55 -54 85 -7 197
84 197 29 0 52 -12 116 -60 l79 -59 133 -1 132 0 0 108 0 109 -70 92 c-50 66
-70 101 -70 122 0 98 103 148 196 95z m-1110 -836 c30 -6 54 -13 54 -16 0 -3
-16 -19 -36 -36 -36 -32 -36 -33 -30 -90 4 -32 4 -58 0 -58 -4 0 -26 11 -49
25 l-43 24 -48 -23 c-55 -27 -60 -23 -45 42 9 41 8 43 -30 79 -21 21 -39 41
-39 45 0 4 19 8 43 8 54 0 71 13 98 75 l22 50 25 -57 c24 -56 26 -57 78 -68z
m5455 -307 c24 -57 42 -73 83 -73 17 0 38 -5 46 -10 12 -8 7 -16 -28 -47 l-43
-38 11 -58 c6 -33 9 -61 7 -64 -3 -2 -29 8 -58 22 l-53 27 -54 -26 c-30 -15
-56 -25 -59 -22 -3 2 1 31 7 63 l12 58 -41 35 c-48 42 -52 60 -12 60 73 0 91
10 119 66 14 30 30 54 34 54 5 0 18 -21 29 -47z m-5082 -823 c75 -222 220
-384 434 -485 118 -56 184 -70 337 -69 127 0 141 2 234 34 230 78 396 221 496
425 56 117 80 211 80 327 l1 83 20 -37 c11 -21 31 -82 46 -135 50 -189 28
-418 -57 -601 -126 -269 -379 -461 -674 -513 -98 -17 -300 -6 -395 21 -387
110 -660 469 -663 870 -1 132 16 218 65 325 l32 70 6 -110 c5 -85 14 -132 38
-205z m4885 -1372 c19 -72 0 -128 -43 -128 -27 0 -29 3 -36 57 -6 52 -5 59 15
75 30 25 56 23 64 -4z m-5337 -141 c51 -27 116 -86 149 -134 29 -44 34 -141 8
-167 -29 -30 -104 1 -104 42 -1 41 -33 104 -69 135 -78 65 -213 13 -293 -112
-33 -52 -37 -117 -12 -161 24 -40 91 -80 134 -80 48 0 60 -15 60 -72 0 -38 -4
-50 -21 -59 -48 -25 -201 30 -253 92 -82 96 -99 216 -47 325 69 145 173 212
331 213 59 0 84 -4 117 -22z m5547 -54 c304 -140 424 -202 430 -221 10 -30
-10 -71 -38 -78 -14 -3 -47 1 -73 10 -25 9 -54 16 -63 16 -8 0 -47 -31 -85
-70 l-69 -70 27 -55 c15 -31 27 -62 27 -71 0 -17 -58 -74 -77 -74 -21 0 -66
76 -187 315 -74 148 -116 242 -116 262 0 40 48 83 93 83 17 0 76 -21 131 -47z
m-3423 -205 c23 -51 26 -53 74 -61 27 -5 52 -10 54 -13 3 -2 -12 -22 -33 -43
l-38 -39 12 -52 c7 -28 10 -53 7 -56 -3 -3 -23 4 -46 15 -51 26 -63 26 -111
-1 -21 -13 -41 -20 -45 -17 -3 4 -1 28 5 55 l11 49 -47 43 c-25 23 -45 44 -43
46 2 1 30 7 63 12 l58 9 22 52 c11 29 24 53 27 53 3 0 16 -24 30 -52z m-1643
-186 c37 -29 84 -64 105 -79 20 -14 37 -30 37 -35 0 -20 -53 -78 -72 -78 -17
0 -49 22 -164 115 l-24 19 -47 -46 -46 -46 29 -23 c76 -64 124 -113 124 -128
0 -33 -30 -61 -65 -61 -26 0 -46 10 -85 45 -28 25 -59 45 -69 45 -18 0 -71
-58 -71 -77 0 -5 32 -33 70 -63 122 -92 145 -136 95 -185 -30 -31 -43 -31 -76
-2 -15 12 -81 65 -148 117 -66 52 -121 100 -121 106 0 7 24 43 53 81 242 318
309 402 319 406 7 2 30 -10 51 -27 21 -17 68 -55 105 -84z m4684 6 c46 -55
131 -159 191 -231 59 -71 107 -134 107 -139 0 -16 -72 -78 -91 -78 -9 0 -32
20 -51 44 -65 85 -297 361 -327 390 l-31 30 42 43 c23 24 50 43 59 43 10 0 54
-44 101 -102z m-4495 57 c24 -16 31 -49 13 -60 -6 -4 -40 -3 -76 0 -72 8 -84
20 -65 62 11 24 15 25 58 19 26 -3 57 -13 70 -21z m4218 -196 c53 -15 120 -82
134 -135 24 -89 -17 -172 -126 -254 -29 -23 -53 -43 -53 -46 0 -3 16 -33 36
-67 61 -103 74 -127 74 -136 0 -12 -84 -61 -104 -61 -8 0 -27 21 -42 48 -15
26 -50 88 -79 137 -29 50 -76 131 -105 180 -29 50 -63 105 -77 123 -14 18 -22
39 -19 47 3 8 24 26 48 41 24 15 67 44 96 63 112 75 137 82 217 60z m-4065
-105 c22 -15 40 -33 40 -41 0 -7 -21 -51 -47 -96 -150 -264 -169 -324 -114
-370 32 -26 90 -42 121 -32 22 7 61 71 165 268 75 142 81 147 148 102 20 -14
37 -29 37 -32 0 -14 -184 -369 -207 -401 -62 -83 -188 -102 -305 -44 -93 46
-122 86 -126 177 -3 69 -2 72 53 175 32 58 79 148 105 201 26 53 50 101 54
107 11 18 33 14 76 -14z m3451 -271 c54 -57 204 -225 336 -376 18 -20 33 -42
33 -47 0 -15 -61 -50 -87 -50 -12 0 -43 18 -68 40 -25 22 -48 40 -50 40 -15 0
-175 -55 -192 -66 -20 -13 -23 -23 -23 -83 l0 -68 -39 -17 c-30 -14 -43 -15
-59 -7 -23 12 -27 60 -38 437 l-6 221 49 21 c26 11 55 21 64 21 8 1 44 -29 80
-66z m-2551 -118 c118 -32 187 -65 231 -110 56 -58 69 -93 69 -185 0 -156 -59
-264 -173 -319 -38 -19 -63 -23 -126 -22 -91 1 -247 33 -269 55 -18 18 -9 83
49 350 21 99 39 188 39 198 0 11 5 28 11 40 9 17 18 19 57 15 26 -3 76 -13
112 -22z m2068 -55 c13 -36 34 -103 47 -150 12 -47 42 -147 65 -223 23 -76 39
-144 37 -152 -7 -17 -103 -31 -121 -16 -7 6 -32 75 -55 154 -52 174 -62 200
-71 190 -4 -4 -22 -66 -40 -138 -18 -71 -39 -142 -47 -157 -15 -30 -52 -45
-78 -31 -8 5 -50 58 -93 118 -70 99 -100 125 -95 85 1 -8 12 -84 25 -168 23
-152 23 -154 4 -168 -11 -8 -37 -14 -58 -14 -43 0 -43 -1 -78 190 -12 63 -35
185 -52 270 l-30 154 22 18 c14 11 39 18 68 18 43 0 50 -4 95 -52 28 -29 79
-95 115 -146 36 -51 70 -91 76 -89 6 2 30 78 53 170 22 92 46 174 53 182 12
14 54 23 105 21 28 -1 32 -6 53 -66z m-1208 -86 c115 -62 167 -164 157 -301
-10 -136 -106 -282 -203 -311 -102 -30 -203 -8 -290 63 -63 52 -86 110 -92
230 -4 90 -2 107 20 162 14 34 36 74 49 91 81 99 243 129 359 66z"/>
<path d="M5026 8711 c-14 -22 -56 -155 -56 -177 0 -20 6 -23 61 -26 34 -1 63
0 66 5 5 9 -45 188 -57 200 -4 5 -11 4 -14 -2z"/>
<path d="M5953 8648 c-5 -7 -17 -39 -27 -72 -21 -70 -18 -76 68 -107 54 -18
60 -19 76 -4 10 9 23 35 28 58 15 56 -1 86 -58 115 -50 25 -73 28 -87 10z"/>
<path d="M2364 7778 c53 -122 72 -158 84 -158 18 0 82 64 82 82 0 11 -156 108
-174 108 -3 0 0 -15 8 -32z"/>
<path d="M5115 6815 c-177 -29 -372 -106 -480 -192 -74 -58 -174 -165 -217
-230 -51 -78 -95 -186 -110 -271 l-12 -69 42 -50 c35 -41 45 -63 63 -142 l22
-94 141 -152 c78 -83 162 -176 187 -206 36 -43 68 -66 150 -108 57 -30 131
-72 163 -93 33 -21 78 -43 100 -49 23 -6 73 -24 113 -41 40 -16 82 -28 95 -26
20 3 23 9 26 59 4 79 -9 106 -62 129 -77 32 -90 80 -50 177 8 17 11 45 8 61
-5 25 -2 30 18 35 12 4 35 7 50 7 20 0 37 12 65 47 46 56 100 82 169 83 61 0
142 -23 177 -50 25 -20 28 -20 57 -5 24 13 38 14 70 5 52 -14 80 -51 80 -106
0 -52 -41 -106 -91 -120 -24 -7 -39 -21 -56 -54 -34 -64 -49 -77 -130 -116
l-73 -35 0 -42 c0 -55 8 -65 56 -73 38 -6 45 -3 95 40 30 25 86 70 124 100 50
39 86 78 125 138 30 46 83 123 117 171 34 48 66 102 72 120 9 28 32 231 48
435 4 43 0 109 -7 158 -11 73 -11 92 2 139 l16 56 -42 33 c-182 149 -444 274
-671 321 -111 23 -337 28 -450 10z m246 -361 c8 -10 34 -26 58 -37 l44 -19
-39 -14 c-49 -17 -81 -53 -96 -109 -12 -45 -28 -51 -28 -12 0 25 -34 85 -59
104 -9 7 -29 17 -46 22 l-30 8 29 12 c59 24 85 50 103 107 l17 55 17 -50 c9
-28 22 -58 30 -67z m509 -371 c32 -16 39 -22 23 -23 -32 0 -80 -45 -94 -88
l-12 -37 -14 39 c-17 51 -39 74 -77 85 l-31 8 36 15 c43 19 66 49 75 96 l7 34
21 -54 c18 -45 28 -56 66 -75z m-936 -134 c10 -49 50 -95 98 -112 l43 -15 -33
-7 c-44 -10 -89 -57 -103 -108 -15 -51 -29 -70 -29 -37 0 34 -37 106 -63 123
-12 7 -35 17 -51 21 -28 7 -28 7 23 33 53 26 91 77 91 123 0 31 16 16 24 -21z"/>
<path d="M6399 6258 c-22 -69 -22 -76 -11 -207 20 -223 25 -336 18 -373 -6
-35 -171 -324 -278 -488 -30 -47 -110 -146 -178 -220 -187 -206 -243 -286
-290 -417 -24 -67 -22 -121 5 -143 8 -7 52 -16 96 -21 45 -4 103 -16 129 -25
l48 -17 98 43 c55 24 166 67 249 95 171 58 165 52 189 184 22 123 58 187 192
336 129 145 158 188 174 259 6 26 17 61 25 76 22 42 85 90 128 97 20 3 39 9
42 12 8 13 -103 262 -165 371 -35 60 -87 140 -117 177 -55 70 -311 333 -323
333 -4 0 -18 -32 -31 -72z"/>
<path d="M7002 5200 c-107 -123 -163 -233 -257 -510 -88 -257 -112 -307 -169
-354 -105 -84 -372 -255 -544 -346 -35 -18 -67 -40 -71 -49 -13 -25 -19 -72
-36 -271 -9 -102 -23 -234 -31 -294 -19 -146 -18 -192 7 -287 11 -45 19 -101
17 -125 -2 -24 -2 -44 -1 -44 9 0 189 78 243 105 250 126 518 369 691 626 156
233 250 465 300 746 26 140 31 468 11 593 -16 96 -61 282 -72 293 -4 5 -44
-32 -88 -83z"/>
<path d="M8470 6330 c-19 -4 -60 -11 -90 -14 -81 -10 -87 -15 -70 -67 8 -23
22 -51 31 -62 16 -21 17 -21 86 27 144 98 161 144 43 116z"/>
<path d="M7660 2424 c0 -24 81 -154 96 -154 16 0 94 68 94 81 0 9 -164 89
-181 89 -5 0 -9 -7 -9 -16z"/>
<path d="M6900 1888 c-52 -27 -60 -47 -30 -86 11 -15 29 -38 40 -52 l18 -25
56 27 c79 39 90 93 27 135 -42 29 -56 29 -111 1z"/>
<path d="M6362 1458 l3 -93 30 -3 c35 -4 105 15 105 29 0 13 -120 159 -131
159 -6 0 -9 -38 -7 -92z"/>
<path d="M3825 1428 c-6 -18 -54 -231 -67 -301 -15 -76 -8 -82 91 -82 69 0 82
3 119 29 56 38 82 95 82 175 0 70 -20 124 -55 147 -26 17 -112 44 -143 44 -12
0 -25 -6 -27 -12z"/>
<path d="M4532 1295 c-61 -51 -95 -171 -72 -256 7 -26 26 -56 46 -75 83 -79
180 -45 240 81 41 86 27 165 -41 232 -39 39 -47 43 -93 43 -39 0 -57 -6 -80
-25z"/>
</g>
</svg>
